<?xml version="1.0" standalone="no"?><!DOCTYPE svg PUBLIC "-//W3C//DTD SVG 1.1//EN" "http://www.w3.org/Graphics/SVG/1.1/DTD/svg11.dtd"><svg t="1617672948368" class="icon" viewBox="0 0 1024 1024" version="1.1" xmlns="http://www.w3.org/2000/svg" p-id="6544" xmlns:xlink="http://www.w3.org/1999/xlink" width="128" height="128"><defs><style type="text/css"></style></defs><path d="M0 0h1024v1024H0z" fill="#FFFFFF" opacity=".01" p-id="6545"></path><path d="M546.384 510.544c106.336-11.744 192.416-97.856 204.16-204.208C765.968 166.32 656.848 48 519.984 48 391.888 48 288 151.776 288 279.936v0.112c0 136.896 118.4 245.92 258.384 230.496zM512.048 576C357.184 576 48 665.312 48 842.704v100C48 961.152 62.88 976 81.104 976H942.88A33.2 33.2 0 0 0 976 942.704v-100C976.112 665.424 666.928 576 512.048 576z" fill="#848484" p-id="6546"></path></svg>